<?xml version="1.0" encoding="utf-8"?>
<!-- Generator: Adobe Illustrator 16.0.0, SVG Export Plug-In . SVG Version: 6.00 Build 0)  -->
<!DOCTYPE svg PUBLIC "-//W3C//DTD SVG 1.1//EN" "http://www.w3.org/Graphics/SVG/1.1/DTD/svg11.dtd">
<svg version="1.1" id="Layer_1" xmlns="http://www.w3.org/2000/svg" xmlns:xlink="http://www.w3.org/1999/xlink" x="0px" y="0px"
	 width="372.049px" height="51.546px" viewBox="416.136 4.958 372.049 51.546"
	 enable-background="new 416.136 4.958 372.049 51.546" xml:space="preserve">
<g>
	<g>
		<path fill="#FFFFFF" d="M436.29,21.645h14.58l-3.391,15.94h-3.926l-0.334-3.324c-3.348,2.924-7.928,4.125-12.895,4.125
			c-10.413,0-15.945-4.486-13.688-15.1c1.883-8.852,9.3-15.1,20.111-15.1c7.933,0,14.927,2.323,14.658,10.174h-8.649
			c-0.377-3.685-3.48-4.727-6.285-4.727c-7.049,0-10.641,5.207-11.584,9.652c-0.947,4.446,0.43,9.653,7.479,9.653
			c4.245,0,7.871-1.603,9.797-6.328h-6.93L436.29,21.645z"/>
		<path fill="#FFFFFF" d="M458.686,8.989h7.77l-4.869,22.909h17.422l-1.21,5.688h-25.192L458.686,8.989z"/>
		<path fill="#FFFFFF" d="M503.316,31.698H490.18l-3.576,5.887h-8.37l18.658-28.597h9.373l6.492,28.597h-8.369L503.316,31.698z
			 M500.268,15.157l-6.896,11.335h8.973L500.268,15.157z"/>
		<path fill="#FFFFFF" d="M538.585,17.279c0.312-3.725-3.17-4.125-6.294-4.125c-3.202,0-5.594,1.442-6.003,3.365
			c-0.32,1.521,0.779,2.362,2.716,2.683l9.398,1.562c5.028,0.841,8.575,2.803,7.468,8.011c-1.133,5.328-5.647,9.612-16.902,9.612
			c-6.97,0-15.832-0.882-14.015-9.813h8.731c-0.756,3.925,3.025,4.605,6.391,4.605c3.646,0,6.357-1.08,6.887-3.564
			c0.469-2.203-1.166-2.804-4.147-3.285l-6.858-1.081c-4.806-0.761-9.296-2.243-8.053-8.09c1.354-6.369,7.115-8.972,16.087-8.972
			c5.89,0,14.405,1.001,13.205,9.092H538.585z"/>
		<path fill="#FFFFFF" d="M571.224,17.279c0.312-3.725-3.169-4.125-6.292-4.125c-3.204,0-5.594,1.442-6.002,3.365
			c-0.324,1.521,0.775,2.362,2.713,2.683l9.4,1.562c5.025,0.841,8.573,2.803,7.468,8.011c-1.132,5.328-5.649,9.612-16.903,9.612
			c-6.969,0-15.833-0.882-14.014-9.813h8.729c-0.754,3.925,3.026,4.605,6.393,4.605c3.645,0,6.355-1.08,6.887-3.564
			c0.468-2.203-1.167-2.804-4.148-3.285l-6.857-1.081c-4.806-0.761-9.295-2.243-8.051-8.09c1.354-6.369,7.111-8.972,16.086-8.972
			c5.888,0,14.404,1.001,13.205,9.092H571.224z"/>
		<path fill="#FFFFFF" d="M586.2,8.989h2.963l-5.502,25.873h18.145l-0.579,2.724H580.12L586.2,8.989z"/>
		<path fill="#FFFFFF" d="M610.27,8.989h2.964l-6.083,28.597h-2.963L610.27,8.989z"/>
		<path fill="#FFFFFF" d="M618.84,8.989h3.564l14.788,24.432h0.08l5.197-24.432h2.963l-6.082,28.597h-3.443l-14.91-24.432h-0.079
			l-5.195,24.432h-2.966L618.84,8.989z"/>
		<path fill="#FFFFFF" d="M651.199,8.989h22.748l-0.579,2.724h-19.783l-2.063,9.692h19.063l-0.578,2.724h-19.064l-2.283,10.732
			h20.104l-0.577,2.724h-23.069L651.199,8.989z"/>
	</g>
	<g>
		<path fill="#FFFFFF" d="M587.315,45.669c-0.015-1.941-1.042-2.563-2.938-2.563c-1.368,0-2.829,0.636-2.829,2.222
			c0,1.183,0.933,1.555,1.863,1.835l1.184,0.357c1.521,0.466,2.983,0.964,2.983,2.828c0,1.09-0.684,3.421-4.291,3.421
			c-2.485,0-4.307-1.196-4.182-3.886h1.057c-0.107,2.16,1.184,2.984,3.203,2.984c1.445,0,3.155-0.714,3.155-2.379
			c0-1.569-1.522-1.849-2.751-2.206l-1.089-0.327c-1.29-0.373-2.192-1.152-2.192-2.581c0-2.225,1.96-3.172,3.936-3.172
			c2.254,0,4.072,0.902,3.949,3.466L587.315,45.669L587.315,45.669z"/>
		<path fill="#FFFFFF" d="M590.378,45.515h0.887l-0.313,1.446h0.031c0.686-1.058,1.508-1.68,2.922-1.68
			c2.055,0,3.047,1.321,3.047,3.279c0,2.458-1.692,5.209-4.383,5.209c-1.26,0-2.349-0.53-2.564-1.835h-0.031l-0.979,4.57h-0.979
			L590.378,45.515z M590.315,50.628c0,1.398,0.809,2.317,2.239,2.317c2.254,0,3.42-2.488,3.42-4.447
			c0-1.367-0.686-2.394-2.162-2.394C591.559,46.105,590.315,48.639,590.315,50.628z"/>
		<path fill="#FFFFFF" d="M605.519,48.42c0,2.707-1.479,5.349-4.446,5.349c-2.065,0-3.202-1.336-3.202-3.343
			c0-2.628,1.616-5.146,4.479-5.146C604.214,45.281,605.519,46.447,605.519,48.42z M604.538,48.624c0-1.492-0.793-2.519-2.36-2.519
			c-2.146,0-3.327,2.348-3.327,4.229c0,1.554,0.777,2.611,2.41,2.611C603.404,52.946,604.538,50.488,604.538,48.624z"/>
		<path fill="#FFFFFF" d="M607.85,45.515h0.887l-0.404,1.849h0.032c0.62-1.15,1.479-1.976,2.907-1.958c0.171,0,0.357,0,0.527,0.016
			l-0.219,0.979c-0.188,0-0.374-0.015-0.561-0.015c-1.757,0.031-2.689,1.446-3.016,2.953l-0.901,4.197h-0.979L607.85,45.515z"/>
		<path fill="#FFFFFF" d="M611.861,45.515h1.445l0.513-2.427h0.979l-0.515,2.427h1.604l-0.156,0.824H614.1l-1.104,5.144
			c-0.077,0.375-0.107,0.515-0.107,0.762c0,0.28,0.14,0.561,0.512,0.561c0.392,0,0.763-0.031,1.152-0.094l-0.173,0.856
			c-0.324,0.031-0.666,0.062-0.993,0.062c-0.73,0-1.479-0.188-1.479-1.15c0-0.173,0.03-0.467,0.109-0.824l1.104-5.317h-1.443
			L611.861,45.515z"/>
		<path fill="#FFFFFF" d="M616.758,50.926c-0.017,1.554,1.135,2.02,2.27,2.02c0.872,0,2.022-0.451,2.022-1.477
			c0-1.042-1.104-1.369-2.16-1.771c-1.073-0.42-2.146-0.904-2.146-2.224c0-1.555,1.682-2.192,2.972-2.192
			c1.679,0,2.892,0.729,2.857,2.581h-0.979c0.079-1.229-0.777-1.757-1.88-1.757c-0.856,0-1.991,0.265-1.991,1.369
			c0,0.745,0.793,1.118,1.693,1.477c1.104,0.434,2.611,0.885,2.611,2.362c0,1.805-1.71,2.458-3.231,2.458
			c-1.539,0-3.108-0.839-3.018-2.844L616.758,50.926L616.758,50.926z"/>
		<path fill="#FFFFFF" d="M629.863,48.017c0.077-1.196-0.775-1.912-1.928-1.912c-2.348,0-3.468,2.27-3.468,4.353
			c0,1.431,0.715,2.488,2.237,2.488c1.29,0,2.226-0.841,2.644-2.006h0.979c-0.592,1.835-1.805,2.83-3.748,2.83
			c-1.987,0-3.093-1.336-3.093-3.312c0-2.502,1.603-5.176,4.354-5.176c1.74,0,3.063,0.87,3.001,2.736L629.863,48.017L629.863,48.017
			z"/>
		<path fill="#FFFFFF" d="M632.896,45.515h0.885l-0.401,1.849h0.029c0.62-1.15,1.479-1.976,2.906-1.958c0.17,0,0.357,0,0.528,0.016
			l-0.217,0.979c-0.188,0-0.374-0.015-0.563-0.015c-1.757,0.031-2.688,1.446-3.017,2.953l-0.9,4.197h-0.979L632.896,45.515z"/>
		<path fill="#FFFFFF" d="M642.486,53.536h-0.9l0.278-1.461h-0.029c-0.606,0.949-1.664,1.695-2.86,1.695
			c-1.4,0-2.426-0.622-2.426-2.16c0-0.25,0.047-0.578,0.123-0.95l1.104-5.144h0.979l-1.119,5.177
			c-0.063,0.248-0.109,0.543-0.109,0.808c0,1.056,0.81,1.446,1.679,1.446c1.415,0,2.705-1.275,3.143-3.313l0.887-4.119h0.979
			L642.486,53.536z"/>
		<path fill="#FFFFFF" d="M646.138,45.515h0.979l-1.725,8.021h-0.979L646.138,45.515z M646.807,42.436h0.979l-0.342,1.571h-0.979
			L646.807,42.436z"/>
		<path fill="#FFFFFF" d="M648.424,50.926c-0.018,1.554,1.135,2.02,2.27,2.02c0.872,0,2.021-0.451,2.021-1.477
			c0-1.042-1.104-1.369-2.16-1.771c-1.073-0.42-2.146-0.904-2.146-2.224c0-1.555,1.683-2.192,2.973-2.192
			c1.678,0,2.892,0.729,2.857,2.581h-0.979c0.078-1.229-0.777-1.757-1.88-1.757c-0.856,0-1.991,0.265-1.991,1.369
			c0,0.745,0.793,1.118,1.693,1.477c1.104,0.434,2.611,0.885,2.611,2.362c0,1.805-1.711,2.458-3.231,2.458
			c-1.54,0-3.108-0.839-3.019-2.844L648.424,50.926L648.424,50.926z"/>
		<path fill="#FFFFFF" d="M656.18,49.79c-0.03,0.186-0.046,0.405-0.046,0.622c0,1.446,0.747,2.534,2.333,2.534
			c1.271,0,2.254-0.824,2.627-1.991h0.979c-0.525,1.789-1.757,2.814-3.651,2.814c-2.114,0-3.267-1.323-3.267-3.404
			c0-2.534,1.586-5.084,4.338-5.084c1.93,0,3.047,1.259,3.047,3.125c0,0.45-0.016,0.901-0.075,1.383L656.18,49.79L656.18,49.79z
			 M661.546,48.966c0-0.217,0.015-0.42,0.015-0.622c0-1.338-0.839-2.239-2.192-2.239c-1.614,0-2.721,1.369-3.063,2.861H661.546z"/>
		<path fill="#FFFFFF" d="M664.56,45.515h0.885l-0.403,1.849h0.031c0.622-1.15,1.479-1.976,2.906-1.958c0.173,0,0.359,0,0.53,0.016
			l-0.217,0.979c-0.188,0-0.375-0.015-0.563-0.015c-1.757,0.031-2.688,1.446-3.017,2.953l-0.9,4.197h-0.981L664.56,45.515z"/>
	</g>
	<g>
		<path fill="#FFFFFF" d="M727.342,44.353l-1.979,9.3h-48.834c7.281-28.45,39.981-21.407,42.468-33.101
			c0.847-3.967-1.926-6.703-7.671-6.703c-5.334,0-11.135,2.189-13.327,8.959H684.32c3.51-13.61,15.422-17.85,28.417-17.85
			c17.237,0,21.524,8.139,19.896,15.799c-2.008,9.438-10.033,12.448-23.955,16.483l-5.902,1.709c-3.16,1.027-7.12,2.601-9.836,5.404
			H727.342z"/>
		<path fill="#FFFFFF" d="M735.342,39.566c1.251-5.882,5.968-10.055,12.101-11.559l0.029-0.137
			c-4.614-1.778-6.627-4.855-5.688-9.917C744.245,7.01,758.09,4.958,767.73,4.958c9.646,0,22.613,2.051,20.149,12.994
			c-0.938,5.062-4.263,8.139-9.634,9.917l-0.027,0.137c5.494,1.504,8.438,5.677,7.187,11.559
			c-2.488,11.694-15.364,15.319-28.291,15.319S732.853,51.261,735.342,39.566z M749.119,39.086c-1.03,4.857,3.113,6.908,9.816,6.908
			c6.839,0,11.856-2.051,12.891-6.908c1.021-4.787-3.127-6.839-9.967-6.839C755.157,32.247,750.139,34.299,749.119,39.086z
			 M774.365,19.116c0.843-3.967-3.94-5.266-8.593-5.266c-6.908,0-10.271,1.983-10.969,5.266c-0.712,3.351,1.681,5.609,8.656,5.609
			C770.778,24.725,773.712,22.193,774.365,19.116z"/>
	</g>
</g>
</svg>
